<svg width="150" height="150" viewBox="0 0 150 150" fill="none" xmlns="http://www.w3.org/2000/svg">
<circle cx="75" cy="75" r="75" fill="#B9F6CA"/>
<g clip-path="url(#clip0_244_318)">
<path fill-rule="evenodd" clip-rule="evenodd" d="M114.775 46.2958C115.947 47.4679 116.605 49.0573 116.605 50.7146C116.605 52.3718 115.947 53.9613 114.775 55.1333L67.9292 101.979C67.3101 102.598 66.5751 103.09 65.7662 103.425C64.9572 103.76 64.0902 103.932 63.2146 103.932C62.339 103.932 61.472 103.76 60.663 103.425C59.8541 103.09 59.1191 102.598 58.5 101.979L35.225 78.7083C34.6281 78.1318 34.1519 77.4421 33.8244 76.6796C33.4968 75.9171 33.3244 75.0969 33.3172 74.2671C33.31 73.4372 33.4681 72.6142 33.7824 71.8461C34.0966 71.078 34.5607 70.3802 35.1475 69.7933C35.7344 69.2065 36.4322 68.7424 37.2003 68.4282C37.9684 68.1139 38.7914 67.9558 39.6213 67.963C40.4511 67.9702 41.2713 68.1426 42.0338 68.4702C42.7963 68.7977 43.486 69.2739 44.0625 69.8708L63.2125 89.0208L105.933 46.2958C106.514 45.715 107.203 45.2543 107.961 44.9399C108.72 44.6256 109.533 44.4638 110.354 44.4638C111.175 44.4638 111.988 44.6256 112.747 44.9399C113.505 45.2543 114.195 45.715 114.775 46.2958Z" fill="#00C853"/>
</g>
<defs>
<clipPath id="clip0_244_318">
<rect width="100" height="100" fill="white" transform="translate(25 25)"/>
</clipPath>
</defs>
</svg>
