<svg width="150" height="150" viewBox="0 0 150 150" fill="none" xmlns="http://www.w3.org/2000/svg">
<circle cx="75" cy="75" r="75" fill="#90CAF9"/>
<g clip-path="url(#clip0_239_376)">
<path d="M75 25L72.625 26.125L28.875 44.5L25 46.125V50C25 70.75 33.375 89 43.375 102.375C48.375 109 53.75 114.5 59 118.375C64.25 122.25 69.375 125 75 125C80.75 125 85.75 122.25 91 118.375C96.25 114.5 101.625 109 106.625 102.375C116.625 89 125 70.75 125 50V46.125L121.125 44.5L77.375 26.125L75 25ZM75 38.625V112.5C74.5 112.5 70.875 111.625 66.75 108.625C62.625 105.625 57.875 100.75 53.5 95C44.6223 83.061 39.3322 68.8385 38.25 54L75 38.75V38.625Z" fill="#1E88E5"/>
</g>
<defs>
<clipPath id="clip0_239_376">
<rect width="100" height="100" fill="white" transform="translate(25 25)"/>
</clipPath>
</defs>
</svg>
