<svg width="200" height="34" viewBox="0 0 200 34" fill="none" xmlns="http://www.w3.org/2000/svg">
<g clip-path="url(#clip0_5_6)">
<g clip-path="url(#clip1_5_6)">
<g clip-path="url(#clip2_5_6)">
<path d="M130.671 6.48214C130.671 5.38332 130.185 4.49255 129.585 4.49255C128.985 4.49255 128.498 5.38332 128.498 6.48214V26.7179C128.498 27.8167 128.985 28.7075 129.585 28.7075C130.185 28.7075 130.671 27.8167 130.671 26.7179V6.48214Z" fill="#010C80"/>
<g clip-path="url(#clip3_5_6)">
<g clip-path="url(#clip4_5_6)">
<g clip-path="url(#clip5_5_6)">
<g clip-path="url(#clip6_5_6)">
<path d="M0.520752 24.8145V5.17993H8.27726C9.26948 5.17993 10.1568 5.38028 10.9391 5.78099C11.7214 6.18169 12.3377 6.74841 12.7881 7.48112C13.2346 8.21766 13.4578 9.06296 13.4578 10.017C13.4578 11.1046 13.1773 12.0492 12.6163 12.8506C12.0515 13.652 11.3303 14.2053 10.4525 14.5106V14.6251C11.4638 14.9304 12.2939 15.5258 12.9426 16.4111C13.5914 17.3003 13.9158 18.3555 13.9158 19.5767C13.9158 20.6453 13.6639 21.5745 13.1601 22.3645C12.6526 23.1582 11.9695 23.765 11.1108 24.1848C10.2522 24.6046 9.30765 24.8145 8.27726 24.8145H0.520752ZM3.41155 13.4803H7.47585C8.37267 13.4803 9.09203 13.1979 9.63393 12.6331C10.1797 12.0721 10.4525 11.3909 10.4525 10.5895C10.4525 9.67356 10.2045 8.97709 9.70835 8.50006C9.21224 8.02303 8.52532 7.78452 7.64758 7.78452H3.41155V13.4803ZM3.41155 22.2099H7.87656C8.77337 22.2099 9.50418 21.9466 10.069 21.4199C10.63 20.8971 10.9105 20.1587 10.9105 19.2046C10.9105 18.3269 10.6204 17.5827 10.0404 16.9721C9.45648 16.3615 8.67797 16.0562 7.70482 16.0562H3.41155V22.2099ZM16.6921 24.8145V5.17993H28.9136V7.78452H19.5543V13.4803H27.6542V16.0562H19.5543V22.2099H29.0853V24.8145H16.6921ZM36.1549 24.8145V7.78452H30.9457V5.17993H44.2262V7.78452H39.0457V24.8145H36.1549ZM44.7357 24.8145L51.0039 5.17993H54.5816L60.8498 24.8145H57.7873L56.4993 20.6071H48.8859L47.5979 24.8145H44.7357ZM49.6587 18.0025H55.6979L53.2364 9.95977C53.0837 9.46366 52.9216 8.69087 52.7498 7.64141H52.6353C52.4636 8.72904 52.3014 9.50182 52.1488 9.95977L49.6587 18.0025Z" fill="#010C80"/>
<path d="M80.0836 28.3636L76.8494 25.1579H76.5059C74.0063 25.1579 72.0695 24.3031 70.6957 22.5934C69.3218 20.8876 68.6349 18.3555 68.6349 14.9972C68.6349 11.6389 69.3218 9.10492 70.6957 7.39525C72.0695 5.68939 74.0063 4.83646 76.5059 4.83646C79.0056 4.83646 80.9423 5.68939 82.3161 7.39525C83.69 9.10492 84.3769 11.6389 84.3769 14.9972C84.3769 17.5159 83.9857 19.571 83.2034 21.1623C82.4211 22.7575 81.2953 23.8795 79.826 24.5283L83.8045 28.3636H80.0836ZM76.5059 22.582C78.0515 22.582 79.2479 21.9943 80.0951 20.8189C80.9461 19.6473 81.3716 17.9452 81.3716 15.7127V14.2817C81.3716 12.0492 80.9461 10.3452 80.0951 9.1698C79.2479 7.99821 78.0515 7.41242 76.5059 7.41242C74.9603 7.41242 73.762 7.99821 72.911 9.1698C72.0638 10.3452 71.6402 12.0492 71.6402 14.2817V15.7127C71.6402 17.9452 72.0638 19.6473 72.911 20.8189C73.762 21.9943 74.9603 22.582 76.5059 22.582ZM94.1026 25.1579C92.0266 25.1579 90.4161 24.5893 89.2712 23.4521C88.1264 22.3187 87.5539 20.6739 87.5539 18.5177V5.17992H90.4447V18.5749C90.4447 19.8724 90.7634 20.8647 91.4007 21.5516C92.0418 22.2385 92.9425 22.582 94.1026 22.582C95.2704 22.582 96.1767 22.2328 96.8217 21.5344C97.4743 20.8399 97.8005 19.8534 97.8005 18.5749V5.17992H100.663V18.5177C100.663 20.6739 100.09 22.3187 98.9454 23.4521C97.8005 24.5893 96.1863 25.1579 94.1026 25.1579ZM104.406 24.8145V5.17992H107.269V24.8145H104.406ZM109.644 24.8145V23.641L118.574 7.7845H110.245V5.17992H122.61V6.38203L113.68 22.2099H122.81V24.8145H109.644Z" fill="#0080FF"/>
</g>
</g>
</g>
</g>
<g clip-path="url(#clip7_5_6)">
<g clip-path="url(#clip8_5_6)">
<path d="M182.83 -0.0492554C176.295 -0.0492554 170.643 3.74487 167.919 9.23758C165.195 3.74487 159.544 -0.0492554 153.009 -0.0492554C143.827 -0.0492554 136.359 7.41837 136.359 16.6C136.359 25.7816 143.827 33.2493 153.009 33.2493C159.544 33.2493 165.195 29.4551 167.919 23.9624C170.643 29.4551 176.294 33.2493 182.83 33.2493C192.012 33.2493 199.479 25.7816 199.479 16.6C199.479 7.41837 192.012 -0.0492554 182.83 -0.0492554ZM160.441 21.6284L158.054 24.0185L153.024 18.9571L147.964 24.0185L145.575 21.6284L150.637 16.6014L145.638 11.5716L148.029 9.18147L153.024 14.2099L158.054 9.18147L160.441 11.5716L155.383 16.6014L160.441 21.6284ZM181.317 22.9862L173.929 15.6006L176.319 13.2119L181.316 18.239L189.342 10.2138L191.73 12.6039L181.317 22.9862Z" fill="#0023FF"/>
</g>
</g>
</g>
</g>
</g>
<defs>
<clipPath id="clip0_5_6">
<rect width="200" height="33.2" fill="white"/>
</clipPath>
<clipPath id="clip1_5_6">
<rect width="198.959" height="33.2985" fill="white" transform="translate(0.520752 -0.0492554)"/>
</clipPath>
<clipPath id="clip2_5_6">
<rect width="198.959" height="33.2985" fill="white" transform="translate(0.520752 -0.0492554)"/>
</clipPath>
<clipPath id="clip3_5_6">
<rect width="122.29" height="24.0944" fill="white" transform="translate(0.520752 4.5528)"/>
</clipPath>
<clipPath id="clip4_5_6">
<rect width="122.29" height="24.0944" fill="white" transform="translate(0.520752 4.5528)"/>
</clipPath>
<clipPath id="clip5_5_6">
<rect width="122.29" height="24.0944" fill="white" transform="translate(0.520752 4.5528)"/>
</clipPath>
<clipPath id="clip6_5_6">
<rect width="122.29" height="24.0944" fill="white" transform="translate(0.520752 4.5528)"/>
</clipPath>
<clipPath id="clip7_5_6">
<rect width="63.1199" height="33.2985" fill="white" transform="translate(136.359 -0.0492554)"/>
</clipPath>
<clipPath id="clip8_5_6">
<rect width="63.1199" height="33.2985" fill="white" transform="translate(136.359 -0.0492554)"/>
</clipPath>
</defs>
</svg>
